<!-- Feather Icons SVG Sprite Sheet -->
<svg xmlns="http://www.w3.org/2000/svg" style="display: none;">
  <symbol id="icon-edit" viewBox="0 0 24 24">
    <path d="M12 20h9" stroke="currentColor" stroke-width="2" stroke-linecap="round" stroke-linejoin="round" fill="none"/>
    <path d="M16.5 3.5a2.121 2.121 0 0 1 3 3L7 19.5 3 21l1.5-4L16.5 3.5z" stroke="currentColor" stroke-width="2" stroke-linecap="round" stroke-linejoin="round" fill="none"/>
  </symbol>
  <symbol id="icon-trash" viewBox="0 0 24 24">
    <polyline points="3 6 5 6 21 6" stroke="currentColor" stroke-width="2" stroke-linecap="round" stroke-linejoin="round" fill="none"/>
    <path d="M19 6v14a2 2 0 0 1-2 2H7a2 2 0 0 1-2-2V6m3 0V4a2 2 0 0 1 2-2h2a2 2 0 0 1 2 2v2" stroke="currentColor" stroke-width="2" stroke-linecap="round" stroke-linejoin="round" fill="none"/>
    <line x1="10" y1="11" x2="10" y2="17" stroke="currentColor" stroke-width="2" stroke-linecap="round"/>
    <line x1="14" y1="11" x2="14" y2="17" stroke="currentColor" stroke-width="2" stroke-linecap="round"/>
  </symbol>
  <symbol id="icon-plus" viewBox="0 0 24 24">
    <line x1="12" y1="5" x2="12" y2="19" stroke="currentColor" stroke-width="2" stroke-linecap="round"/>
    <line x1="5" y1="12" x2="19" y2="12" stroke="currentColor" stroke-width="2" stroke-linecap="round"/>
  </symbol>
  <symbol id="icon-arrow-right" viewBox="0 0 24 24">
    <line x1="5" y1="12" x2="19" y2="12" stroke="currentColor" stroke-width="2" stroke-linecap="round"/>
    <polyline points="12 5 19 12 12 19" stroke="currentColor" stroke-width="2" stroke-linecap="round" stroke-linejoin="round" fill="none"/>
  </symbol>
  <symbol id="icon-arrow-left" viewBox="0 0 24 24">
    <line x1="19" y1="12" x2="5" y2="12" stroke="currentColor" stroke-width="2" stroke-linecap="round"/>
    <polyline points="12 19 5 12 12 5" stroke="currentColor" stroke-width="2" stroke-linecap="round" stroke-linejoin="round" fill="none"/>
  </symbol>
  <symbol id="icon-eye" viewBox="0 0 24 24">
    <path d="M1 12s4-7 11-7 11 7 11 7-4 7-11 7-11-7-11-7z" stroke="currentColor" stroke-width="2" stroke-linecap="round" stroke-linejoin="round" fill="none"/>
    <circle cx="12" cy="12" r="3" stroke="currentColor" stroke-width="2" stroke-linecap="round" stroke-linejoin="round" fill="none"/>
  </symbol>
</svg>
